# xmcd CD database file
#
# Track frame offsets:
#	150
#	17642
#	32010
#	45162
#	55270
#	70782
#	82440
#	95835
#	109105
#	121862
#	139805
#	158677
#
# Disc length: 2267 seconds
#
# Revision: 0
# Processed by: cddbd v1.4PL0 Copyright (c) Steve Scherf et al.
# Submitted via: Feurio! 1.65 - http://www.feurio.com
#
DISCID=9b08d90c
DTITLE=One O'Clock Humph - Mambo Gumbo
DYEAR=1992
DGENRE=blues
TTITLE0=You Tore My Heart
TTITLE1=I Ain't Gonna Hurry
TTITLE2=Pinegrove Blues
TTITLE3=You Can Make It If You Try
TTITLE4=Angel On My Shoulder
TTITLE5=You Got The Power
TTITLE6=Set Me Free
TTITLE7=Allons Rock 'n' Roll
TTITLE8=Good Rockin' Zydeco
TTITLE9=If I Could
TTITLE10=Tomorrow
TTITLE11=My Little Love Light
EXTD=1992 Sony Music
EXTT0=
EXTT1=
EXTT2=
EXTT3=
EXTT4=
EXTT5=
EXTT6=
EXTT7=
EXTT8=House Party Dance Mix
EXTT9=
EXTT10=
EXTT11=
PLAYORDER=
